<!DOCTYPE svg PUBLIC "-//W3C//DTD SVG 1.1//EN" "http://www.w3.org/Graphics/SVG/1.1/DTD/svg11.dtd">
<!-- Uploaded to: SVG Repo, www.svgrepo.com, Transformed by: SVG Repo Mixer Tools -->
<svg fill="#ffffff" height="800px" width="800px" version="1.1" id="Layer_1" xmlns="http://www.w3.org/2000/svg" xmlns:xlink="http://www.w3.org/1999/xlink" viewBox="0 0 512 512" xml:space="preserve">
<g id="SVGRepo_bgCarrier" stroke-width="0"/>
<g id="SVGRepo_tracerCarrier" stroke-linecap="round" stroke-linejoin="round"/>
<g id="SVGRepo_iconCarrier"> <g> <g> <path d="M511.996,245.866l-65.059-39.121l8.529-22.822l-0.071-0.027c5.41-3.978,10.784-8.645,16.179-14.042l17.831-17.838 l-61.131-22.201l10.7-57.672l-57.637,10.718l-22.214-61.122l-17.831,17.817c-4.269,4.266-10.384,10.383-16.226,18.151 l-19.794,7.368L266.131,0l-22.346,54.127l-58.118-40.495l4.805,37.372c2.188,17.059,4.818,37.564,13.533,56.35L42.408,268.951 c-25.364,25.355-39.493,52.092-41.996,79.47c-3.281,35.896,13.207,72.247,48.96,107.997l6.16,6.176 c32.824,32.821,66.109,49.407,99.087,49.405c2.988-0.001,5.979-0.137,8.961-0.41c27.373-2.504,54.113-16.631,79.477-41.992 l161.594-161.592c18.855,8.758,39.436,11.369,56.557,13.541l37.12,4.718l-40.463-58.056L511.996,245.866z M32.395,351.344 c1.801-19.698,12.808-39.778,32.719-59.682L244.38,112.4l-7.041-10.897c-3.616-5.597-6.272-11.887-8.302-18.509l29.183,20.334 l13.262-32.124l20.013,33.27l16.595-6.177c-0.563,5.883-0.377,12.097,0.85,18.637c-31.588,31.555-168.455,168.281-192.748,192.582 c-28.354,28.346-52.132,72.703-47.215,121.021C42.421,402.95,30.113,376.323,32.395,351.344z M104.359,389.927 c8.357-29.268,26.938-50.101,34.542-57.703c27.356-27.362,197.513-197.342,199.228-199.055l7.051-7.043l-3.182-9.445 c-4.189-12.437-1.721-23.362,5.044-34.161l13.408,36.893l38.416-7.144l-7.133,38.441l35.818,13.008 c-10.452,5.542-22.819,8.119-36.741,2.839l-9.701-3.677l-7.34,7.332c-1.727,1.725-173.004,172.808-200.381,200.185 c-8.242,8.242-35.576,32.797-72.546,37.694C101.446,402.082,102.618,396.024,104.359,389.927z M429.013,282.979 c-6.614-2.029-12.901-4.687-18.494-8.306l-10.899-7.054l-179.271,179.27c-34.696,34.691-68.864,41.999-105.341,21.79 c-5.523-9.315-9.501-18.828-11.898-28.511c47.973-5.68,82.632-36.702,92.988-47.057c24.237-24.238,161.307-161.156,193.577-193.39 c8.361,1.938,16.745,2.383,25.102,1.338l-7.269,19.45l33.272,20.008l-32.121,13.259L429.013,282.979z"/> </g> </g> </g>
</svg>