<!DOCTYPE svg PUBLIC "-//W3C//DTD SVG 1.1//EN" "http://www.w3.org/Graphics/SVG/1.1/DTD/svg11.dtd">
<!-- Uploaded to: SVG Repo, www.svgrepo.com, Transformed by: SVG Repo Mixer Tools -->
<svg fill="#ffffff" height="800px" width="800px" version="1.1" id="Layer_1" xmlns="http://www.w3.org/2000/svg" xmlns:xlink="http://www.w3.org/1999/xlink" viewBox="0 0 512 512" xml:space="preserve">
<g id="SVGRepo_bgCarrier" stroke-width="0"/>
<g id="SVGRepo_tracerCarrier" stroke-linecap="round" stroke-linejoin="round"/>
<g id="SVGRepo_iconCarrier"> <g> <g> <path d="M503.968,244.865c-3.596-4.986-89.339-122.101-199.429-122.101c-84.388,0-154.465,68.812-184.211,103.188 c-19.937-21.037-57.092-52.432-101.295-52.432H0v164.083h19.034c43.911,0,80.869-30.983,100.901-52.015 c29.511,34.218,99.836,103.647,184.604,103.647c110.09,0,195.833-117.116,199.429-122.101L512,256L503.968,244.865z M38.067,296.482v-81.816c15.559,4.871,29.583,14.688,39.744,23.316c7.284,6.187,13.414,12.449,18.007,17.539 C84.158,268.386,62.679,288.803,38.067,296.482z M422.252,298.651c-50.621,43.406-91.953,52.516-117.713,52.516 c-72.718,0-136.898-67.938-159.716-95.194c8.617-10.325,23.165-26.473,42.004-42.627c50.621-43.406,91.953-52.516,117.713-52.516 c72.711,0,136.886,67.926,159.714,95.195C455.636,266.35,441.087,282.5,422.252,298.651z"/> </g> </g> <g> <g> <circle cx="367.985" cy="256.003" r="19.034"/> </g> </g> </g>
</svg>