<svg width="512" height="456" viewBox="0 0 512 456" fill="none" xmlns="http://www.w3.org/2000/svg">
<path d="M333.767 239.923C312.762 225.92 285.145 218.208 255.999 218.208C226.853 218.208 199.236 225.92 178.231 239.923C155.204 255.273 142.524 276.347 142.524 299.261C142.524 322.176 155.204 343.249 178.231 358.6C199.236 372.603 226.853 380.315 255.999 380.315C285.145 380.315 312.762 372.603 333.767 358.6C356.794 343.25 369.474 322.176 369.474 299.261C369.474 276.347 356.793 255.274 333.767 239.923ZM255.999 347.894C212.064 347.894 174.946 325.624 174.946 299.262C174.946 272.9 212.064 250.63 255.999 250.63C299.934 250.63 337.052 272.9 337.052 299.262C337.053 325.623 299.935 347.894 255.999 347.894Z" fill="white"/>
<path d="M196.56 153.366C184.646 153.366 174.95 163.06 174.946 174.98C174.946 186.898 184.641 196.594 196.558 196.594H196.56C208.478 196.594 218.174 186.898 218.174 174.98C218.175 163.062 208.479 153.366 196.56 153.366Z" fill="white"/>
<path d="M315.438 153.366C303.524 153.366 293.828 163.06 293.824 174.98C293.824 186.898 303.519 196.594 315.436 196.594H315.438C327.356 196.594 337.052 186.898 337.052 174.98C337.053 163.062 327.357 153.366 315.438 153.366Z" fill="white"/>
<path d="M489.073 0.0341797C473.747 15.3612 443.601 17.9982 414.447 20.5482C391.27 22.5742 369.378 24.4892 351.437 32.4222C335.007 39.6882 324.277 51.0752 319.348 66.3942C299.432 59.7242 278.131 56.1022 256 56.1022C233.869 56.1022 212.568 59.7242 192.653 66.3942C187.722 51.0752 176.994 39.6882 160.562 32.4222C142.621 24.4902 120.729 22.5762 97.552 20.5482C68.398 17.9992 38.252 15.3622 22.925 0.0341797L0 22.9592C15.327 38.2872 17.964 68.4322 20.514 97.5862C22.541 120.763 24.455 142.656 32.388 160.596C39.654 177.027 51.041 187.756 66.361 192.688C59.691 212.603 56.069 233.903 56.069 256.035C56.069 366.277 145.757 455.966 256 455.966C366.243 455.966 455.931 366.277 455.931 256.035C455.931 233.903 452.308 212.603 445.639 192.688C460.959 187.757 472.348 177.027 479.612 160.596C487.544 142.655 489.458 120.764 491.486 97.5862C494.035 68.4332 496.673 38.2862 511.999 22.9592L489.073 0.0341797ZM52.811 94.7622C51.428 78.9462 49.957 62.1312 46.259 46.2942C62.095 49.9922 78.912 51.4632 94.727 52.8462C140.468 56.8472 158.683 61.5042 162.551 79.3332C127.176 98.1172 98.082 127.211 79.297 162.587C61.467 158.717 56.812 140.503 52.811 94.7622ZM255.999 423.543C163.634 423.543 88.489 348.398 88.489 256.033C88.489 163.668 163.634 88.5232 255.999 88.5232C348.364 88.5232 423.509 163.668 423.509 256.033C423.509 348.398 348.364 423.543 255.999 423.543ZM459.189 94.7602C455.188 140.503 450.531 158.717 432.701 162.585C413.917 127.209 384.824 98.1162 349.45 79.3312C353.318 61.5012 371.533 56.8462 417.273 52.8452C433.089 51.4622 449.904 49.9912 465.742 46.2932C462.042 62.1302 460.572 78.9452 459.189 94.7602Z" fill="white"/>
<circle cx="231" cy="299" r="15" fill="white"/>
<circle cx="281" cy="299" r="15" fill="white"/>
</svg>
