<!DOCTYPE svg PUBLIC "-//W3C//DTD SVG 1.1//EN" "http://www.w3.org/Graphics/SVG/1.1/DTD/svg11.dtd">
<!-- Uploaded to: SVG Repo, www.svgrepo.com, Transformed by: SVG Repo Mixer Tools -->
<svg fill="#ffffff" version="1.1" id="Layer_1" xmlns="http://www.w3.org/2000/svg" xmlns:xlink="http://www.w3.org/1999/xlink" width="800px" height="800px" viewBox="0 0 116 256" enable-background="new 0 0 116 256" xml:space="preserve" stroke="#ffffff">
<g id="SVGRepo_bgCarrier" stroke-width="0"/>
<g id="SVGRepo_tracerCarrier" stroke-linecap="round" stroke-linejoin="round"/>
<g id="SVGRepo_iconCarrier"> <path d="M50.364,254c-30.937-2.154-54.825-30.154-46.21-63.832C30.196,199.958,51.538,214.839,50.364,254 M56.238,78.951 C28.825,64.657,18.056,29.413,39.007,2C58.979,21.385,72.881,43.315,56.238,78.951 M65.636,177.832 c30.937-2.35,54.825-30.154,46.21-63.832C85.804,123.79,64.462,138.671,65.636,177.832 M65.636,238.336 c30.937-2.35,54.825-30.154,46.21-63.832C85.804,184.294,64.462,199.175,65.636,238.336 M65.636,117.329 c30.937-2.154,54.825-30.154,46.21-63.832C85.804,63.287,64.462,78.168,65.636,117.329 M50.364,193.692 c-30.937-2.35-54.825-30.35-46.21-63.832C30.196,139.65,51.538,154.531,50.364,193.692 M50.364,133.189 c-30.937-2.35-54.825-30.154-46.21-63.832C30.196,79.147,51.538,94.028,50.364,133.189"/> </g>
</svg>