<!DOCTYPE svg PUBLIC "-//W3C//DTD SVG 1.1//EN" "http://www.w3.org/Graphics/SVG/1.1/DTD/svg11.dtd">
<!-- Uploaded to: SVG Repo, www.svgrepo.com, Transformed by: SVG Repo Mixer Tools -->
<svg fill="#ffffff" height="800px" width="800px" version="1.1" id="Capa_1" xmlns="http://www.w3.org/2000/svg" xmlns:xlink="http://www.w3.org/1999/xlink" viewBox="0 0 512 512" xml:space="preserve">
<g id="SVGRepo_bgCarrier" stroke-width="0"/>
<g id="SVGRepo_tracerCarrier" stroke-linecap="round" stroke-linejoin="round"/>
<g id="SVGRepo_iconCarrier"> <path d="M416.009,212.883c27.266-46.047,19.078-105.43-19.922-144.414L336.994,9.375c-12.5-12.5-32.75-12.5-45.25,0l-60.656,60.648 c-29.875,29.875-41.453,73.805-30.219,114.656c1.352,4.898,1.094,11.344-2.531,14.688c-23.086,21.289-36.346,51.195-37.401,82.859 c-48.18,15.688-80.947,60.914-80.947,112V480c0,17.672,13.567,32,31.239,32h83.43c51.406,0,96.977-31.531,113.391-78.453 c4.055-11.586,6.289-23.57,6.656-35.664c48.086-15.68,81.32-61.156,81.32-111.992c0-11.18-1.578-22.281-4.703-33 c-1.469-5.047,0.039-10.313,4.023-14.078C403.361,231.227,410.314,222.5,416.009,212.883z M191.931,448c-26.508,0-48-21.49-48-48 s21.492-48,48-48c26.508,0,48,21.49,48,48S218.439,448,191.931,448z M287.931,336c-26.508,0-48-21.49-48-48s21.492-48,48-48 c26.508,0,48,21.49,48,48S314.439,336,287.931,336z M319.931,192c-26.508,0-48-21.49-48-48s21.492-48,48-48c26.508,0,48,21.49,48,48 S346.439,192,319.931,192z"/> </g>
</svg>