<svg width="200" height="200" viewBox="0 0 200 200" fill="none" xmlns="http://www.w3.org/2000/svg">
<g clip-path="url(#clip0_804_6514)">
<path d="M187.579 12.4238C171.613 -3.54143 117.604 -6.6719 92.577 18.3609C85.6316 25.3062 83.6555 36.4992 81.7406 47.3254C79.8957 57.7742 77.1871 69.8109 71 76C64 79.5 59.5 81.784 44.5 81.784C24.7844 87.5679 25.7219 85.2137 18.3582 92.5793C-6.66797 117.61 -3.53984 171.618 12.4219 187.579C20.1297 195.285 36.702 200 54.6027 200C73.7785 200 94.4754 194.588 107.419 181.642C114.783 174.278 116.529 162.45 118.214 151.011C119.559 141.907 120.949 132.491 125.234 128.205C131.42 122.018 142.224 120.107 152.675 118.26C163.499 116.348 174.692 114.369 181.637 107.424C206.668 82.3949 203.54 28.3875 187.579 12.4238ZM175.701 101.487C170.625 106.561 161.195 108.227 151.211 109.992C139.481 112.065 127.353 114.209 119.297 122.268C113.044 128.518 111.523 138.848 109.908 149.785C108.42 159.873 106.882 170.305 101.482 175.705C80.5437 196.646 31.782 195.061 18.3586 181.642C4.94336 168.225 3.35664 119.457 24.2953 98.5164C29.6949 93.1168 40.1297 91.5793 50.2156 90.0906C61.1547 88.4773 69.2473 88.0343 75.5 81.784C83.5605 73.7254 87.9359 60.5172 90.0105 48.7871C91.7734 38.8035 93.4383 29.3715 98.5141 24.2976C109.654 13.1578 128.67 8.39372 146.05 8.39372C161.339 8.39372 175.361 12.0816 181.642 18.3609C195.057 31.7781 196.644 80.5457 175.701 101.487Z" fill="white"/>
<path d="M23.0121 147.23C21.7821 145.619 22.3028 137.337 24.0864 130.188C24.6442 127.94 23.2746 125.66 21.0278 125.098C18.7727 124.543 16.4973 125.904 15.9395 128.153C14.5004 133.897 11.7371 147.827 17.0422 153.132C17.8664 153.956 18.9528 154.37 20.0352 154.37C21.1094 154.37 22.1797 153.965 22.9953 153.151C24.636 151.511 24.652 148.868 23.0121 147.23Z" fill="white"/>
<path d="M70.3918 166.958C68.7969 166.958 67.4114 167.846 66.702 169.151C63.9098 170.244 54.361 171.154 45.2016 171.156C42.8809 171.156 41.0032 173.036 41.0032 175.355C41.0032 177.674 42.8809 179.553 45.2016 179.553C74.5907 179.553 74.5907 174.09 74.5907 171.156C74.5903 168.838 72.7125 166.958 70.3918 166.958Z" fill="white"/>
<path d="M153.106 18.7868C145.435 16.2265 133.418 17.8915 130.417 20.0581C128.121 21.7123 126.917 23.4462 126.917 24.0982C126.917 26.4167 128.096 28.5582 130.417 28.5582C131.869 28.5582 134.139 25.1091 142.667 25.1091C147 25.1091 147.256 25.1091 150.139 25.5801C151.467 25.7971 151.5 26.5 153.106 26.5C155 25.5801 155.172 25.857 155.759 24.0982C156.492 21.8987 155.303 19.5204 153.106 18.7868Z" fill="white"/>
<path d="M179.555 36.8091C179.551 36.8091 179.551 36.8091 179.551 36.8091C177.235 36.8091 175.357 38.6868 175.353 41.0013C175.353 41.1181 175.291 52.7313 171.597 60.1196C170.56 62.1942 171.4 64.7157 173.475 65.7532C174.078 66.0544 174.717 66.1962 175.349 66.1962C176.89 66.1962 178.371 65.3474 179.109 63.8755C183.697 54.6974 183.75 41.561 183.75 41.0056C183.749 38.6888 181.872 36.811 179.555 36.8091Z" fill="white"/>
</g>
<defs>
<clipPath id="clip0_804_6514">
<rect width="200" height="200" fill="white"/>
</clipPath>
</defs>
</svg>
